<svg xmlns="http://www.w3.org/2000/svg" xmlns:xlink="http://www.w3.org/1999/xlink" width="84px" height="70px" viewBox="0 0 84 70"><title>2</title><defs><path d="M75.9971581,20.1104174 L72.9219072,20.1104174 L72.9219072,23.18368 L71.3643987,23.18368 L71.3643987,20.1104174 L68.2957755,20.1104174 L68.2957755,18.5529089 L71.3643987,18.5529089 L71.3643987,15.4803091 L72.9219072,15.4803091 L72.9219072,18.5529089 L75.9971581,18.5529089 L75.9971581,20.1104174 Z M38.8224122,42.3880914 L35.1904349,37.5525245 L38.3385904,37.5525245 L39.4255326,28.9835766 L33.0894554,28.9835766 L35.6278629,16.9960631 L39.4255326,16.9960631 L36.9401466,25.9301971 L43.9058549,25.9301971 L41.3608197,37.7798545 L44.4692091,37.7798545 L38.8224122,42.3880914 Z M7.6854973,20.1104174 L15.3935075,20.1104174 L15.3935075,18.5529089 L7.6854973,18.5529089 L7.6854973,20.1104174 Z M77.5612943,4.653968 L77.7998913,4.653968 C77.6275712,4.63541045 77.4618788,4.62546891 77.2895588,4.62546891 L68.8193635,4.62546891 L68.8193635,0 L53.7943771,0 L53.7943771,4.62546891 L25.8520115,4.62546891 L25.8520115,0 L10.8270251,0 L10.8270251,4.62546891 L4.57710796,4.62546891 C4.40478787,4.62546891 4.23246778,4.63541045 4.06677538,4.653968 L4.31200013,4.653968 C1.73382646,4.80507947 -0.241226896,7.05451943 0.023880937,9.65787834 L5.18685598,45.8788987 C5.42545303,48.2184754 7.39387868,50 9.740083,50 L72.7429594,50 C75.1289299,50 77.110611,48.1740698 77.3094418,45.8013547 L81.8494135,9.57967153 C82.0614997,7.00414894 80.0997018,4.8044167 77.5612943,4.653968 L77.5612943,4.653968 Z" id="path-1"></path></defs><g id="2" stroke="none" stroke-width="1" fill="none" fill-rule="evenodd"><g id="Group-178" transform="translate(1.000000, 10.000000)"><mask id="mask-2" fill="white"><use xlink:href="#path-1"></use></mask><use id="Fill-176" fill="#2A2A2A" xlink:href="#path-1"></use></g></g></svg>