<svg xmlns="http://www.w3.org/2000/svg" xmlns:xlink="http://www.w3.org/1999/xlink" width="84px" height="70px" viewBox="0 0 84 70"><title>3</title><g id="3" stroke="none" stroke-width="1" fill="none" fill-rule="evenodd"><path d="M25.2091071,17.0626893 L16.1726023,8.02588456 C9.26949589,14.9295907 5,24.4657079 5,34.9995502 C5,45.5336923 9.26979578,55.0701094 16.1726023,61.9732158 L25.2091071,52.936411 C15.3185232,43.0464268 15.3185232,26.9535732 25.2091071,17.0626893 Z M43.1465678,19.0359479 C34.3301802,19.0359479 27.1823658,26.1831626 27.1823658,34.9995502 C27.1823658,43.8162376 34.3298803,50.9634523 43.1465678,50.9634523 C51.9641549,50.9634523 59.1107698,43.8162376 59.1107698,34.9995502 C59.1107698,26.1831626 51.9641549,19.0359479 43.1465678,19.0359479 Z M43.1465678,22.7395564 C44.5596369,22.7395564 45.7052065,23.8854259 45.7052065,25.2987949 C45.7052065,26.711864 44.5596369,27.8577335 43.1465678,27.8577335 C41.7334987,27.8577335 40.5879291,26.711864 40.5879291,25.2987949 C40.5879291,23.8854259 41.7334987,22.7395564 43.1465678,22.7395564 Z M36.0242437,42.0660952 C34.8001037,42.7723298 33.2352916,42.3530873 32.5290569,41.129547 C31.8228223,39.905407 32.241465,38.340295 33.4656051,37.6343602 C34.6897451,36.9278257 36.2545572,37.3464684 36.9607919,38.5697088 C37.6670265,39.7941488 37.2483838,41.3592607 36.0242437,42.0660952 Z M36.9616915,31.428192 C36.2548571,32.6523321 34.6897451,33.0715745 33.4656051,32.36504 C32.241465,31.6585054 31.8222225,30.0936934 32.5290569,28.8695533 C33.2358914,27.6463129 34.8010033,27.2267705 36.0242437,27.9333051 C37.2483838,28.6398396 37.6679262,30.2049516 36.9616915,31.428192 Z M43.1465678,47.2598438 C41.732599,47.259244 40.5873293,46.1139743 40.5873293,44.7012051 C40.5879291,43.2872364 41.732599,42.1416668 43.1450684,42.1416668 C44.5590371,42.1422665 45.7046067,43.2875363 45.7052065,44.7009052 C45.7046067,46.1139743 44.5590371,47.2598438 43.1465678,47.2598438 Z M43.1465678,39.2720449 C40.7873542,39.2720449 38.8743729,37.3590637 38.8743729,34.9998501 C38.8743729,32.6406364 40.7873542,30.7279551 43.1465678,30.7279551 C45.5066811,30.7279551 47.4187627,32.6406364 47.4187627,34.9998501 C47.4187627,37.3590637 45.5066811,39.2720449 43.1465678,39.2720449 Z M53.7640786,41.1289473 C53.0572442,42.3536871 51.4921322,42.7729296 50.2688918,42.0666949 C49.044152,41.3592607 48.6246096,39.7950484 49.3308443,38.571808 C50.0385784,37.3476679 51.6036903,36.9284255 52.8269307,37.6343602 C54.0507709,38.3414946 54.4703133,39.9066065 53.7640786,41.1289473 Z M52.8281303,32.3653399 C51.6024908,33.0718744 50.0382785,32.6529318 49.331444,31.4296914 C48.6258092,30.2052515 49.0453515,28.6401395 50.2679922,27.9339048 C51.492732,27.2270704 53.057844,27.6463129 53.7637788,28.8695533 C54.4709131,30.0936934 54.0516706,31.6588053 52.8281303,32.3653399 Z M43.1465678,0 C34.0209964,0 25.7123181,3.49338748 19.4815591,9.21493782 L26.2692089,16.0028875 C26.8548888,16.5882676 26.8548888,17.5377108 26.2692089,18.1233908 C21.7687997,22.6237999 19.2905308,28.6170482 19.2905308,34.9998501 C19.2905308,41.3826519 21.7690996,47.3765 26.2692089,51.8766092 C26.8548888,52.4619893 26.8548888,53.4114326 26.2692089,53.9971125 L19.4815591,60.7850622 C25.7120182,66.5060127 34.0206965,70 43.1465678,70 C62.4767052,70 78.1470176,54.3299874 78.1470176,34.9998501 C78.1470176,15.6700126 62.4764053,0 43.1465678,0 Z M43.1465678,52.4631888 C33.5171857,52.4631888 25.6829291,44.6292322 25.6829291,34.9998501 C25.6829291,25.3707678 33.5171857,17.5368112 43.1465678,17.5368112 C52.7759499,17.5368112 60.6102065,25.3707678 60.6102065,34.9998501 C60.6102065,44.6292322 52.7759499,52.4631888 43.1465678,52.4631888 Z" id="Shape" fill="#2A2A2A" fill-rule="nonzero"></path></g></svg>