<svg xmlns="http://www.w3.org/2000/svg" xmlns:xlink="http://www.w3.org/1999/xlink" width="84px" height="70px" viewBox="0 0 84 70"><title>7s</title><g id="7s" stroke="none" stroke-width="1" fill="none" fill-rule="evenodd"><g id="Group" transform="translate(2.000000, 6.000000)" fill="#2A2A2A"><path d="M71.8289214,39.7907331 C71.8180063,41.1232902 70.55094,42.1938839 69.085582,42.1820591 L58.6134113,42.0974668 C57.7820412,42.0910996 57.1407765,41.3279491 57.1488854,40.3937948 L57.1671548,38.1152585 C57.1744316,37.1801946 57.8284306,36.3215366 58.6616199,36.1914645 L69.1465249,34.554193 C70.6146117,34.3249749 71.8653052,35.208192 71.8553593,36.5416587 L71.8289214,39.7907331 Z M74.5640745,24.0165314 C78.257941,22.9013676 80.3108975,20.1616666 79.9616129,18.1471859 C79.7787843,17.0944203 78.8819233,15.9073984 77.6048515,15.490258 C75.9521169,14.9505042 74.5804472,15.9998133 74.4185392,16.1280662 C73.9464593,17.0643127 73.4734697,18.0005591 73.0013897,18.9364417 L70.6719162,8.45208248 C69.7095644,4.13123194 67.3682661,0.334672133 63.2532569,0.301471905 C49.5647573,0.201052584 35.8771673,0.100633263 22.1886677,-3.55271368e-15 C18.072749,-0.0329862859 15.9424768,3.80286804 14.6453939,8.0375799 L11.3435629,18.7708954 L9.81362366,15.6066862 C9.7472232,15.5446518 8.18544808,14.1333237 6.37353424,14.82498 C5.14558059,15.2936945 4.39607407,16.5019099 4.23234692,17.5168363 C3.93309006,19.3639515 5.3957193,21.6561316 8.06720069,22.8640742 C10.1165189,21.8753441 12.3559425,21.2195259 14.7154327,20.9602912 L17.7598482,10.3247573 C18.0863929,9.21650637 18.5302754,8.15246179 19.0823997,7.15345328 L19.0823997,7.1761022 C19.4635202,6.65635945 19.843731,6.13661669 20.2248514,5.6169649 C21.1017013,4.68672179 22.2878136,4.17707555 23.5148576,4.20327189 L61.4331568,4.50935071 C64.5721701,4.53463746 66.4532132,7.41514384 67.0890203,10.7228871 L69.4221322,21.5997367 L20.8879464,21.2077012 C30.3704774,23.0332589 37.5344499,31.3742478 37.5344499,41.388892 C37.5344499,45.6639899 36.2291807,49.6343734 33.9952146,52.9225604 L64.6258362,53.1699703 L64.6094635,55.2056446 C64.6058251,56.6000542 65.6427638,57.7361387 66.9325699,57.7506922 L76.9144687,57.8307636 C78.2042748,57.8371038 79.2594054,56.7183016 79.2785069,55.323892 L79.3148907,50.8004746 C80.1999269,37.1438108 80.7111195,31.6289345 75.7829322,26.0622113 L74.5640745,24.0165314 L74.5640745,24.0165314 Z" id="Fill-22"></path><path d="M16.9057382,36.7699671 C14.2906517,36.7699671 12.1694755,38.8911433 12.1694755,41.5062298 C12.1694755,44.1213163 14.2906517,46.2424925 16.9057382,46.2424925 C19.5208247,46.2424925 21.6420009,44.1213163 21.6420009,41.5062298 C21.6420009,38.8911433 19.5208247,36.7699671 16.9057382,36.7699671" id="Fill-23"></path><path d="M28.773228,43.0152484 C28.773228,43.6492363 28.2538491,44.1677056 27.6198612,44.1677056 L25.680604,44.1677056 C25.4431996,44.9526864 25.103011,45.693097 24.6755012,46.3734742 L25.9334715,47.6305349 C26.381902,48.079875 26.381902,48.8130088 25.9334715,49.2614393 L24.2307091,50.9642017 C23.7822786,51.4126322 23.0482352,51.4126322 22.6007143,50.9642017 L21.228135,49.592532 C20.5222891,49.9718332 19.7600482,50.2601749 18.9586948,50.4439132 L18.9586948,52.2212624 C18.9586948,52.8543407 18.4393159,53.3737196 17.8053279,53.3737196 L15.3967196,53.3737196 C14.7627317,53.3737196 14.2442623,52.8543407 14.2442623,52.2212624 L14.2442623,50.2820052 C13.4592816,50.0436913 12.718871,49.7035026 12.0384938,49.2759928 L10.7805235,50.5339631 C10.332093,50.9823936 9.59895917,50.9823936 9.15052869,50.5339631 L7.4468567,48.8312007 C6.99842621,48.3827703 6.99842621,47.6487268 7.4468567,47.201206 L8.8185264,45.8286267 C8.44013476,45.1227807 8.15088345,44.3605399 7.9680548,43.5591864 L6.19070559,43.5591864 C5.55671767,43.5591864 5.03824835,43.0407171 5.03824835,42.4067292 L5.03824835,39.9972112 C5.03824835,39.3632233 5.55671767,38.844754 6.19070559,38.844754 L8.12996276,38.844754 C8.36736714,38.0597732 8.70755578,37.3193627 9.13506557,36.6389854 L7.87709527,35.3819247 C7.42866479,34.9334942 7.42866479,34.1994508 7.87709527,33.7510203 L9.58076726,32.0482579 C10.0291977,31.5998274 10.7623316,31.5998274 11.210762,32.0482579 L12.5824317,33.4199276 C13.2891873,33.0406264 14.0505185,32.7522847 14.8527816,32.5685464 L14.8527816,30.7921068 C14.8527816,30.1572093 15.3712509,29.63874 16.0052388,29.63874 L18.4138472,29.63874 C19.0478351,29.63874 19.567214,30.1572093 19.567214,30.7921068 L19.567214,32.7304544 C20.3521948,32.9678588 21.0926053,33.3080474 21.7729826,33.7355572 L23.0300433,32.4784965 C23.4793834,32.030066 24.2125172,32.030066 24.6609477,32.4784965 L26.3637101,34.1812589 C26.8121406,34.6296894 26.8121406,35.3637328 26.3637101,35.8112537 L24.9920404,37.1829234 C25.370432,37.8896789 25.6596833,38.6519198 25.8434216,39.4532732 L27.6198612,39.4532732 C28.2538491,39.4532732 28.773228,39.9717425 28.773228,40.6057305 L28.773228,43.0152484 Z M16.9812346,24.408567 C7.60239749,24.408567 0,32.0109645 0,41.388892 C0,50.7677291 7.60239749,58.3701266 16.9812346,58.3701266 C26.3591621,58.3701266 33.9615596,50.7677291 33.9615596,41.388892 C33.9615596,32.0109645 26.3591621,24.408567 16.9812346,24.408567 L16.9812346,24.408567 Z" id="Fill-24"></path></g></g></svg>