<svg xmlns="http://www.w3.org/2000/svg" xmlns:xlink="http://www.w3.org/1999/xlink" width="84px" height="70px" viewBox="0 0 84 70"><title>6</title><g id="6" stroke="none" stroke-width="1" fill="none" fill-rule="evenodd"><g id="Group" transform="translate(27.000000, 0.000000)" fill="#2A2A2A" fill-rule="nonzero"><path d="M23.3601225,59.3379258 L6.56333716,59.3379258 C2.94680444,59.3379258 0,56.3911213 0,52.7745886 L0,25.6907769 C0,22.0742442 2.94680444,19.1274397 6.56333716,19.1274397 L23.3601225,19.1274397 C26.9766552,19.1274397 29.9234596,22.0742442 29.9234596,25.6907769 L29.9234596,52.7745886 C29.8966705,56.3911213 26.9766552,59.3379258 23.3601225,59.3379258 Z" id="Path"></path><polygon id="Path" points="5.38461538 61.6150019 5.38461538 70 12.456946 66.1959434 12.456946 61.6150019"></polygon><polygon id="Path" points="17.3325679 61.6150019 17.3325679 70 24.4316877 66.1959434 24.4316877 61.6150019"></polygon><polygon id="Path" points="16.3145809 21.5652507 9.0815155 21.5652507 9.0815155 16.8235744 2.86643705 12.1890547 2.86643705 2.03597398 19.0470723 2.03597398 19.0470723 9.24225029 11.010333 9.24225029 16.3145809 13.2070417"></polygon><rect id="Rectangle" x="22.1546116" y="0" width="7.20627631" height="11.5729047"></rect></g></g></svg>