<svg xmlns="http://www.w3.org/2000/svg" xmlns:xlink="http://www.w3.org/1999/xlink" width="84px" height="70px" viewBox="0 0 84 70"><title>4</title><g id="4" stroke="none" stroke-width="1" fill="none" fill-rule="evenodd"><path d="M9.1034025,57.7405689 C6.29886583,60.5451056 6.29886583,65.0919273 9.1034025,67.8969981 C11.9079392,70.7010006 16.4552951,70.7010006 19.2598317,67.8969981 C20.1786514,66.9779114 20.794581,65.8707872 21.1113601,64.7003605 L12.2995059,55.8890405 C11.1288122,56.2058196 10.0222221,56.8217493 9.1034025,57.7405689 Z M16.2963713,60.7037622 C17.4646612,61.871785 17.4649283,63.765515 16.2966384,64.9335377 C15.1283486,66.1020947 13.2343515,66.1020947 12.0663287,64.9338048 C10.898306,63.765515 10.898306,61.871785 12.0663287,60.703228 C13.2346186,59.5357395 15.1283486,59.5357395 16.2963713,60.7037622 Z M28.1769229,35.5182216 L41.4824461,48.8234778 L69.0959142,21.2092084 L55.790658,7.90421935 L28.1769229,35.5182216 Z M12.5716795,54.272559 L22.7281088,64.428454 L38.9631709,48.1928577 L28.8070088,38.0369626 L12.5716795,54.272559 Z M74.2447764,2.75535712 C70.5705663,-0.918585921 64.6134633,-0.918318822 60.9392532,2.75535712 C59.3444066,4.35020364 58.4429484,6.37561331 58.2324746,8.45738082 L68.5430198,18.767926 C70.6245202,18.5577193 72.6499299,17.655994 74.2447764,16.0608804 C77.9187195,12.3866702 77.9187195,6.42956726 74.2447764,2.75535712 Z M70.5767096,12.3928135 C68.9284433,14.0410798 66.2555863,14.0413469 64.60732,12.3928135 C62.9590538,10.7445473 62.9590538,8.07169025 64.60732,6.42342399 C66.2555863,4.77515772 68.9284433,4.77515772 70.5767096,6.42315689 C72.2252429,8.07169025 72.2249758,10.7445473 70.5767096,12.3928135 Z" id="Shape" fill="#2A2A2A" fill-rule="nonzero"></path></g></svg>